Coordinates
version=1
nRows=6
nColumns=63
inDegrees=yes

Units are S.I. units (second, meters, Newtons, ...)
If the header above contains a line with 'inDegrees', this indicates whether rotational values are in degrees (yes) or radians (no).

endheader
time	pelvis_tilt	pelvis_list	pelvis_rotation	pelvis_tx	pelvis_ty	pelvis_tz	hip_flexion_r	hip_adduction_r	hip_rotation_r	knee_angle_r	knee_angle_r_beta	ankle_angle_r	subtalar_angle_r	mtp_angle_r	hip_flexion_l	hip_adduction_l	hip_rotation_l	knee_angle_l	knee_angle_l_beta	ankle_angle_l	subtalar_angle_l	mtp_angle_l	L5_S1_Flex_Ext	L5_S1_Lat_Bending	L5_S1_axial_rotation	L4_L5_Flex_Ext	L4_L5_Lat_Bending	L4_L5_axial_rotation	L3_L4_Flex_Ext	L3_L4_Lat_Bending	L3_L4_axial_rotation	L2_L3_Flex_Ext	L2_L3_Lat_Bending	L2_L3_axial_rotation	L1_L2_Flex_Ext	L1_L2_Lat_Bending	L1_L2_axial_rotation	L1_T12_Flex_Ext	L1_T12_Lat_Bending	L1_T12_axial_rotation	Abs_r3	Abs_r2	Abs_r1	Abs_t1	Abs_t2	neck_flexion	neck_bending	neck_rotation	arm_flex_r	arm_add_r	arm_rot_r	elbow_flex_r	pro_sup_r	wrist_flex_r	wrist_dev_r	arm_flex_l	arm_add_l	arm_rot_l	elbow_flex_l	pro_sup_l	wrist_flex_l	wrist_dev_l
      3.92500000	    -44.83293065	     -0.59966090	     -2.63154103	     -0.38009317	      1.12575153	      0.01523953	     80.78268709	     -2.73371908	     -4.83904665	     59.11257955	      1.03170914	     -2.22159471	     -7.64268277	      0.00000000	    114.53792206	     -1.26179281	     10.22646543	     90.26390668	      1.57540237	     20.26003702	     -5.38613995	      0.00000000	     -0.08172302	      0.23747883	      0.35466691	     -0.15176782	      0.31584685	      0.37683359	     -0.13426275	      0.57740604	      0.37683359	     -0.09340124	      0.57740604	      0.31033354	     -0.07588800	      0.48426684	      0.28816686	     -0.04669653	      0.36785471	      0.26600018	     -0.58373936	      2.68640807	      1.97255093	      0.00000000	      0.00000000	     -0.00000000	      0.00000000	      0.00000000	     58.71461725	    -11.62512372	     17.20791372	     45.50542035	     58.34361469	      0.00000000	      4.99998987	     63.27091046	     -9.84101827	     25.64685904	     38.94636322	     60.23971216	      0.00000000	      4.99998987
      3.93300000	    -44.88068827	     -0.96344312	     -2.88010136	     -0.38068602	      1.12569227	      0.01596125	     81.85112572	     -2.54090974	     -4.99549116	     62.19530302	      1.08551282	     -1.91683069	     -7.99287591	      0.00000000	    113.39247074	     -1.58410163	     10.57478696	     87.37787106	      1.52503154	     19.71137829	     -5.44831811	      0.00000000	     -0.08108537	      0.28276860	      0.42275568	     -0.15058364	      0.37608224	      0.44917791	     -0.13321516	      0.68752358	      0.44917791	     -0.09267247	      0.68752358	      0.36991122	     -0.07529588	      0.57662173	      0.34348899	     -0.04633218	      0.43800856	      0.31706676	     -0.57918470	      3.19873497	      2.35124025	      0.00000000	      0.00000000	     -0.00000000	      0.00000000	      0.00000000	     58.87159858	    -11.75212874	     17.29329847	     45.47898036	     58.36236281	      0.00000000	      4.99998996	     63.30745784	     -9.59096673	     25.50336679	     38.80045855	     60.23168783	      0.00000000	      4.99998996
      3.94200000	    -44.93195931	     -1.20970711	     -2.67695589	     -0.38137287	      1.12578509	      0.01618070	     83.03540653	     -2.87188572	     -5.19536283	     65.36250116	      1.14079085	     -1.79783206	     -8.39008564	      0.00000000	    112.01271366	     -1.59855334	     10.50979898	     84.12397366	      1.46824032	     19.01045395	     -5.73129903	      0.00000000	     -0.08143275	      0.31025746	      0.40984762	     -0.15122875	      0.41264242	      0.43546310	     -0.13378586	      0.75435998	      0.43546310	     -0.09306949	      0.75435998	      0.35861667	     -0.07561845	      0.63267701	      0.33300119	     -0.04653067	      0.48058880	      0.30738572	     -0.58166597	      3.50969441	      2.27944951	      0.00000000	      0.00000000	     -0.00000000	      0.00000000	      0.00000000	     59.03061712	    -11.91983728	     17.61045957	     45.56585609	     58.41317684	      0.00000000	      4.99999012	     63.46464861	     -9.29898076	     25.26056556	     38.32060619	     60.22449653	      0.00000000	      4.99999012
      3.95000000	    -44.97770337	     -1.52310550	     -2.58528237	     -0.38194225	      1.12584797	      0.01654704	     84.26601428	     -3.06242935	     -5.35489797	     68.49839834	      1.19552258	     -1.61931546	     -8.73559750	      0.00000000	    110.54369655	     -1.75298542	     10.51915011	     80.85409955	      1.41117025	     18.02129672	     -6.05315438	      0.00000000	     -0.08034577	      0.34724938	      0.42111086	     -0.14921014	      0.46184167	      0.44743029	     -0.13200007	      0.84430214	      0.44743029	     -0.09182719	      0.84430214	      0.36847200	     -0.07460909	      0.70811093	      0.34215257	     -0.04590958	      0.53788929	      0.31583315	     -0.57390183	      3.92815442	      2.34209228	      0.00000000	      0.00000000	     -0.00000000	      0.00000000	      0.00000000	     59.13440528	    -12.12183450	     17.96454475	     45.64648018	     58.47030340	      0.00000000	      4.99999029	     63.62958842	     -9.01312858	     25.13022014	     37.93653158	     60.23439751	      0.00000000	      4.99999029
      3.95800000	    -44.98718389	     -1.79568928	     -2.55844038	     -0.38237736	      1.12586040	      0.01679252	     85.55769104	     -3.19479742	     -5.39839734	     71.66019207	      1.25070629	     -1.32503450	     -9.07759036	      0.00000000	    108.95817357	     -1.91389256	     10.52686196	     77.61358025	      1.35461252	     16.46598597	     -6.89851465	      0.00000000	     -0.08136137	      0.38526505	      0.45009512	     -0.15109620	      0.51240252	      0.47822606	     -0.13366859	      0.93673344	      0.47822606	     -0.09298791	      0.93673344	      0.39383323	     -0.07555217	      0.78563249	      0.36570228	     -0.04648989	      0.59677556	      0.33757134	     -0.58115612	      4.35819529	      2.50329401	      0.00000000	      0.00000000	     -0.00000000	      0.00000000	      0.00000000	     59.31069393	    -12.40507646	     18.39590565	     45.64694990	     58.56549985	      0.00000000	      4.99999071	     63.71060268	     -8.80368047	     25.21770471	     37.67608604	     60.31149897	      0.00000000	      4.99999071
      3.96700000	    -45.00221188	     -2.12606632	     -2.53406835	     -0.38272427	      1.12586622	      0.01707923	     86.92330002	     -3.32359965	     -5.45463928	     74.79475966	      1.30541482	     -1.21857261	     -9.12676599	      0.00000000	    107.25762493	     -2.10259436	     10.67651493	     74.34499108	      1.29756488	     15.43790016	     -6.89954289	      0.00000000	     -0.08093253	      0.42871372	      0.48346906	     -0.15029979	      0.57018925	      0.51368587	     -0.13296405	      1.04237455	      0.51368587	     -0.09249778	      1.04237455	      0.42303543	     -0.07515394	      0.87423303	      0.39281861	     -0.04624485	      0.66407756	      0.36260179	     -0.57809294	      4.84969539	      2.68890986	      0.00000000	      0.00000000	     -0.00000000	      0.00000000	      0.00000000	     59.35979604	    -12.70687834	     18.61658026	     45.83649041	     58.60440438	      0.00000000	      4.99999084	     63.82999603	     -8.48441834	     25.23375540	     37.27520139	     60.33780279	      0.00000000	      4.99999084
